<?xml version="1.0" encoding="UTF-8" standalone="no"?>
<!DOCTYPE svg PUBLIC "-//W3C//DTD SVG 1.1//EN" "http://www.w3.org/Graphics/SVG/1.1/DTD/svg11.dtd">
<svg xmlns="http://www.w3.org/2000/svg" version="1.1" viewBox="0.00 0.00 512.00 512.00">
<g stroke-width="2.00" fill="none" stroke-linecap="butt">
<path stroke="#f5823a" vector-effect="non-scaling-stroke" d="
  M 262.32 82.97
  L 259.21 86.96"
/>
<path stroke="#efb92a" vector-effect="non-scaling-stroke" d="
  M 259.21 86.96
  Q 241.66 87.14 229.90 98.15
  Q 220.68 106.77 217.20 118.32
  Q 176.72 252.47 136.12 386.95
  Q 133.61 395.23 133.42 399.75
  Q 132.38 423.43 149.83 437.43
  Q 158.13 444.08 171.89 447.44"
/>
<path stroke="#e8722b" vector-effect="non-scaling-stroke" d="
  M 213.71 430.57
  Q 213.73 430.47 213.60 430.32
  Q 213.51 430.20 213.36 430.16
  C 205.26 427.93 196.75 425.65 189.68 421.22
  Q 184.10 417.72 179.90 412.73
  Q 168.61 399.32 169.48 381.70
  Q 169.75 376.20 173.91 362.42
  Q 213.13 232.40 253.17 99.75
  Q 254.90 94.02 259.21 86.96"
/>
</g>
<path fill="#fcc938" d="
  M 262.32 82.97
  L 259.21 86.96
  Q 241.66 87.14 229.90 98.15
  Q 220.68 106.77 217.20 118.32
  Q 176.72 252.47 136.12 386.95
  Q 133.61 395.23 133.42 399.75
  Q 132.38 423.43 149.83 437.43
  Q 158.13 444.08 171.89 447.44
  Q 168.39 448.59 165.31 449.52
  Q 161.76 450.60 158.53 450.99
  Q 151.29 451.88 144.53 450.49
  Q 127.47 446.98 117.29 432.82
  Q 114.29 428.66 108.56 414.85
  Q 55.95 288.20 3.47 161.75
  Q 0.72 155.10 0.00 145.62
  L 0.00 143.26
  Q 0.40 141.19 0.60 139.09
  Q 0.81 136.89 1.33 134.78
  Q 5.26 118.66 18.59 109.08
  Q 23.03 105.90 30.62 102.75
  Q 109.87 69.89 192.08 35.73
  C 203.43 31.01 215.55 30.35 227.07 35.10
  Q 242.80 41.60 250.29 57.23
  Q 256.43 70.05 262.32 82.97
  Z"
/>
<path fill="#ed3b3b" d="
  M 213.71 430.57
  Q 213.73 430.47 213.60 430.32
  Q 213.51 430.20 213.36 430.16
  C 205.26 427.93 196.75 425.65 189.68 421.22
  Q 184.10 417.72 179.90 412.73
  Q 168.61 399.32 169.48 381.70
  Q 169.75 376.20 173.91 362.42
  Q 213.13 232.40 253.17 99.75
  Q 254.90 94.02 259.21 86.96
  L 262.32 82.97
  C 264.59 80.90 266.55 78.76 269.04 76.90
  Q 281.85 67.40 297.86 68.16
  Q 303.53 68.43 310.33 70.49
  Q 392.64 95.43 477.34 120.84
  Q 484.72 123.05 489.14 125.56
  Q 505.10 134.60 510.20 152.11
  Q 512.59 160.32 511.53 168.76
  Q 510.79 174.53 508.80 181.10
  Q 469.76 309.91 429.74 443.37
  Q 427.02 452.44 424.16 457.68
  Q 416.14 472.35 399.08 478.13
  Q 390.81 480.93 381.96 479.93
  Q 376.09 479.26 365.76 476.15
  Q 290.39 453.46 215.47 430.90
  Q 214.70 430.67 213.71 430.57
  Z"
/>
<path fill="#e2a91b" d="
  M 259.21 86.96
  Q 254.90 94.02 253.17 99.75
  Q 213.13 232.40 173.91 362.42
  Q 169.75 376.20 169.48 381.70
  Q 168.61 399.32 179.90 412.73
  Q 184.10 417.72 189.68 421.22
  C 196.75 425.65 205.26 427.93 213.36 430.16
  Q 213.51 430.20 213.60 430.32
  Q 213.73 430.47 213.71 430.57
  L 171.89 447.44
  Q 158.13 444.08 149.83 437.43
  Q 132.38 423.43 133.42 399.75
  Q 133.61 395.23 136.12 386.95
  Q 176.72 252.47 217.20 118.32
  Q 220.68 106.77 229.90 98.15
  Q 241.66 87.14 259.21 86.96
  Z"
/>
</svg>
